PathFileType	4	(X/Y/Z)	 s06c0303.trc
DataRate	CameraRate	NumFrames	NumMarkers	Units	OrigDataRate	OrigDataStartFrame	OrigNumFrames
200	200	6	48	mm	200	1	2000
Frame#	Time	racr			lacr			c7			jug			rlel			rdr			llel			ldr			s2			lic			ric			lasi			rasi			rpsi			lpsi			rgt			lgt			rth1			rth2			rth3			rth4			rlfc			rmfc			rsh1			rsh2			rsh3			rsh4			rlmal			rcal			rtoe			rmt5			lth1			lth2			lth4			lth3			llfc			lmfc			llmal			lcal			lmt5			lsh1			lsh2			lsh3			lsh4			ltoe			SBIKE			LBIKE			RBIKE			
		X1	Y1	Z1	X2	Y2	Z2	X3	Y3	Z3	X4	Y4	Z4	X5	Y5	Z5	X6	Y6	Z6	X7	Y7	Z7	X8	Y8	Z8	X9	Y9	Z9	X10	Y10	Z10	X11	Y11	Z11	X12	Y12	Z12	X13	Y13	Z13	X14	Y14	Z14	X15	Y15	Z15	X16	Y16	Z16	X17	Y17	Z17	X18	Y18	Z18	X19	Y19	Z19	X20	Y20	Z20	X21	Y21	Z21	X22	Y22	Z22	X23	Y23	Z23	X24	Y24	Z24	X25	Y25	Z25	X26	Y26	Z26	X27	Y27	Z27	X28	Y28	Z28	X29	Y29	Z29	X30	Y30	Z30	X31	Y31	Z31	X32	Y32	Z32	X33	Y33	Z33	X34	Y34	Z34	X35	Y35	Z35	X36	Y36	Z36	X37	Y37	Z37	X38	Y38	Z38	X39	Y39	Z39	X40	Y40	Z40	X41	Y41	Z41	X42	Y42	Z42	X43	Y43	Z43	X44	Y44	Z44	X45	Y45	Z45	X46	Y46	Z46	X47	Y47	Z47	X48	Y48	Z48	
1	0.0050	452.554143	1324.774636	-51.146010	478.226239	1335.446608	-380.014956	454.644081	1421.953761	-212.384619	475.375247	1265.111457	-208.116480	523.359812	1078.674213	21.955576	719.019378	918.333210	-45.756396	511.084624	1068.148295	-442.250925	713.565906	918.330959	-390.225779	-35.679837	1139.739858	-223.152829	150.999536	1081.826694	-378.472995	117.804111	1099.977141	-44.508706	156.240105	1012.836635	-350.908271	137.294203	1041.757999	-77.849388	-1.726510	1173.525154	-188.268036	2.097336	1170.168087	-249.850381	71.779448	1047.298406	-11.376783	94.979478	1009.021487	-407.076646	172.935695	972.468479	-6.594063	259.509000	944.406003	-11.630748	317.265607	880.078297	-15.624253	275.377335	973.865154	-30.028693	379.336372	794.072172	-37.221273	375.400096	768.664881	-147.712625	343.682519	677.478481	-10.437301	336.534020	591.917007	-31.324470	290.767470	517.987247	-33.283703	357.900856	589.489053	-64.607409	259.329552	436.197058	-38.597465	195.693241	406.586377	-87.399017	471.159677	392.481063	-98.729178	378.313144	369.186116	-24.262264	130.241264	891.172565	-416.801150	190.369881	829.604592	-405.194244	221.033559	847.481603	-393.355901	211.801901	742.879473	-396.628601	223.969980	633.315981	-369.326813	216.771226	617.197854	-254.039704	-50.918936	376.968953	-371.553751	-130.508630	361.832154	-325.872414	55.329691	295.124424	-397.001752	149.034488	557.086452	-395.616461	100.995765	486.571813	-377.509671	22.550989	443.800940	-380.470766	117.596622	473.115170	-345.035192	141.037051	289.417063	-336.999829	-155.460559	854.940959	-207.902361	-52.316569	83.954952	-410.428683	-50.718855	79.753295	-12.960379	
2	0.0100	452.534359	1324.726520	-51.159210	478.200628	1335.406534	-380.016204	454.638039	1421.942847	-212.360274	475.373674	1265.070942	-208.107899	523.346805	1078.679454	21.946378	719.028852	918.323207	-45.746384	511.099601	1068.119103	-442.192449	713.567850	918.327721	-390.217421	-35.692215	1139.734291	-223.141270	150.959608	1081.852105	-378.448308	117.800593	1099.978999	-44.513988	156.236732	1012.849760	-350.977869	137.252481	1041.734705	-77.833046	-1.748563	1173.520492	-188.280720	2.071846	1170.178619	-249.841897	71.797539	1047.359027	-11.346307	94.941646	1009.011946	-407.079579	172.953427	972.487385	-6.628296	259.504074	944.443493	-11.651922	317.282692	880.093684	-15.622555	275.377357	973.917454	-30.057729	379.350438	794.095089	-37.233087	375.417129	768.694169	-147.741969	343.698081	677.498481	-10.445142	336.539511	591.967405	-31.347977	290.776003	518.032113	-33.293389	357.919350	589.525388	-64.643181	259.332218	436.230512	-38.611223	195.708055	406.639215	-87.415696	471.140533	392.503398	-98.737899	378.319032	369.226929	-24.273818	130.225251	891.163638	-416.823835	190.342912	829.603043	-405.209039	221.017130	847.477592	-393.377062	211.785749	742.867834	-396.634211	223.946181	633.301038	-369.359024	216.750177	617.150216	-254.039745	-50.931043	376.923582	-371.555748	-130.517872	361.786084	-325.864801	55.328078	295.128684	-397.001506	149.023313	557.064452	-395.643706	100.986423	486.558894	-377.520233	22.542910	443.780455	-380.484073	117.571905	473.088150	-345.054531	141.040385	289.394076	-337.005859	-155.378271	854.871964	-206.961196	-52.316334	83.944840	-410.388365	-50.705867	79.783592	-12.985398	
3	0.0150	452.505250	1324.729214	-51.155815	478.139797	1335.394866	-380.030762	454.638309	1421.928780	-212.365455	475.379053	1265.043580	-208.111583	523.332111	1078.670928	21.933851	719.045419	918.337377	-45.759169	511.104733	1068.119259	-442.146860	713.561679	918.327193	-390.208470	-35.711333	1139.727021	-223.129735	150.930603	1081.867458	-378.396467	117.756921	1100.013487	-44.520715	156.192881	1012.830686	-350.935752	137.211793	1041.760937	-77.823592	-1.747404	1173.503826	-188.283655	2.051158	1170.169406	-249.835234	71.804426	1047.428660	-11.345432	94.938658	1009.017775	-407.068664	172.931939	972.491074	-6.626400	259.497187	944.460827	-11.671357	317.294231	880.131397	-15.659593	275.364812	973.938868	-30.076586	379.340817	794.139069	-37.249967	375.412316	768.750246	-147.750364	343.700235	677.538006	-10.466892	336.537299	592.002296	-31.362086	290.791020	518.060496	-33.303912	357.934360	589.554152	-64.650082	259.312348	436.279578	-38.611744	195.703059	406.677223	-87.414972	471.137058	392.519469	-98.741138	378.310173	369.258919	-24.273678	130.196792	891.150854	-416.833525	190.327616	829.595793	-405.204801	220.992093	847.463409	-393.370351	211.758801	742.865970	-396.649384	223.910753	633.290006	-369.360364	216.723275	617.180137	-254.050977	-50.933743	376.893944	-371.564510	-130.526162	361.725656	-325.872077	55.334878	295.097844	-396.986337	148.978945	557.043477	-395.659566	100.969514	486.538078	-377.526273	22.523232	443.739207	-380.489916	117.574839	473.083109	-345.038342	141.051453	289.371950	-336.999872	-155.349598	854.876474	-207.007656	-52.316863	83.940177	-410.396157	-50.728103	79.755845	-12.970121	
4	0.0200	453.250505	1324.722083	-50.827488	478.091881	1335.386022	-380.051138	454.615558	1421.914567	-212.358437	475.368579	1265.010323	-208.119562	523.317717	1078.664293	21.908789	719.049473	918.337932	-45.749978	511.067746	1068.297444	-442.661326	713.568662	918.322151	-390.221153	-36.402523	1140.030476	-222.148501	150.878195	1081.899756	-378.364632	117.495927	1099.870640	-44.527292	156.141492	1012.854889	-350.907519	136.782064	1041.514056	-77.746073	-1.917093	1173.463586	-188.389707	2.038302	1170.176707	-249.841686	71.895273	1047.481278	-11.019870	94.897430	1009.028141	-407.109969	173.407314	972.398274	-6.501199	259.708401	944.785962	-11.361421	317.304018	880.161611	-15.674363	275.444411	973.880629	-30.118337	379.361357	794.180232	-37.278387	375.277792	768.686394	-147.874246	343.606373	677.479572	-10.391237	336.274308	592.025684	-31.414513	290.699390	518.048961	-33.491383	358.098946	589.558601	-64.677014	258.947522	436.791169	-38.208944	195.691931	406.725655	-87.416138	471.135705	392.558223	-98.748165	378.294917	369.295655	-24.279723	130.175434	891.154083	-416.838893	190.299978	829.591604	-405.230466	220.746865	847.339077	-393.084963	211.739327	742.853066	-396.637114	223.880520	633.280198	-369.363542	216.682958	617.136121	-254.058901	-50.941180	376.723465	-371.335632	-130.524484	361.659470	-325.854994	55.328556	295.071593	-397.004953	149.129776	556.945826	-395.714307	100.849376	486.356847	-377.587221	22.091701	445.022254	-381.858341	116.882164	472.422293	-344.201347	141.045279	289.358467	-337.011153	-158.902904	855.350531	-209.853343	-52.311085	83.960033	-410.399912	-50.729370	79.797503	-12.979836	
5	0.0250	453.165677	1325.257982	-50.520383	477.955794	1335.519203	-379.964391	454.621876	1421.799361	-212.420374	475.317443	1265.488922	-208.128221	523.282345	1078.885721	22.054943	719.229124	918.513765	-45.644541	511.004836	1068.579777	-442.832721	713.570032	918.268768	-390.151558	-36.585292	1139.697098	-222.515932	150.858141	1081.665861	-378.520023	117.466529	1100.167353	-44.678856	156.478993	1012.683835	-351.728775	136.818206	1041.764612	-77.778187	-2.129829	1172.974385	-188.229548	1.923215	1169.976211	-249.831938	71.828035	1047.757511	-11.049318	94.742277	1009.127810	-407.154049	173.282270	972.793391	-6.457837	259.663887	945.043709	-11.291802	317.500537	880.494790	-14.449778	275.488080	974.022343	-30.316321	379.250729	794.271874	-36.964614	375.237672	768.678062	-147.975287	343.525395	677.732110	-10.222910	336.263992	592.332983	-31.221650	290.553955	518.257791	-33.271545	357.950134	589.828940	-64.616654	258.319875	436.988347	-38.228264	195.596219	406.833568	-87.447514	471.123290	392.751861	-98.712518	378.162367	369.653750	-24.183551	130.043345	891.168251	-416.746601	190.285994	829.556439	-405.309806	220.696644	847.293534	-393.191348	211.590960	742.953299	-396.598560	223.703074	633.429121	-369.256601	216.566722	617.379480	-253.871211	-50.873271	376.819505	-371.605328	-130.536398	361.661071	-325.834391	55.386798	295.155678	-397.209563	148.876475	557.200958	-395.599317	100.636404	486.599589	-377.488588	21.653443	445.133262	-382.148375	116.905543	472.452674	-344.269192	141.371871	289.347614	-336.895882	-154.758869	855.091670	-206.571318	-52.517084	84.312329	-410.375253	-50.901960	80.259663	-12.527018	
6	0.0300	453.117865	1325.250193	-50.482414	477.882343	1335.533570	-379.992091	454.604821	1421.788707	-212.403847	475.288247	1265.478599	-208.153247	523.246287	1078.880228	22.028209	719.128596	918.339899	-45.708259	510.988058	1068.604103	-442.808046	713.575664	918.282980	-390.161503	-36.560404	1140.109894	-222.019426	150.762122	1081.992450	-378.324164	117.454009	1100.209206	-44.678107	156.036489	1013.032897	-350.772100	136.734928	1041.809218	-77.823557	-1.945391	1173.444809	-188.370062	1.973454	1170.221058	-249.787461	71.792214	1047.790949	-11.041470	94.718764	1009.223679	-407.111787	173.255669	972.842155	-6.446209	259.668104	945.092629	-11.333717	317.447025	880.518100	-15.567514	275.463022	974.070391	-30.347764	379.406625	794.603667	-37.087560	375.225781	768.767105	-148.050907	343.518601	677.784562	-10.274958	336.256776	592.407873	-31.239970	290.618573	518.397714	-33.403764	357.969856	589.881859	-64.610405	259.059695	436.823096	-38.234202	195.563139	406.935174	-87.336632	471.085705	392.803436	-98.729342	378.249675	370.324383	-23.477498	130.030957	891.256631	-416.723958	190.242370	829.580176	-405.252281	220.651213	847.343281	-393.133826	211.539841	742.998161	-396.560810	223.734761	633.423785	-369.418508	216.480732	617.411407	-253.864222	-50.994573	376.678271	-371.396812	-130.544828	361.551791	-325.868547	55.291199	295.055032	-397.035651	148.894077	557.155898	-395.745271	100.637397	486.590433	-377.521447	22.130793	444.889831	-381.733608	116.921838	472.475657	-344.322066	140.972975	289.343897	-337.089482	-158.440382	855.090359	-209.422304	-52.349023	83.991841	-410.460290	-50.894088	80.185122	-13.041121	
